<svg width="13" height="13" viewBox="0 0 13 13" fill="none" xmlns="http://www.w3.org/2000/svg">
<path d="M11.05 0H1.95C1.43283 0 0.936838 0.205446 0.571142 0.571142C0.205446 0.936837 1.17571e-07 1.43283 1.17571e-07 1.95V2.7105C-9.30847e-05 2.97891 0.0552282 3.24445 0.1625 3.4905V3.5295C0.254332 3.73813 0.384405 3.92773 0.546 4.0885L4.55 8.0665V12.35C4.54978 12.4605 4.57771 12.5692 4.63117 12.6658C4.68462 12.7625 4.76183 12.844 4.8555 12.9025C4.95894 12.9666 5.0783 13.0004 5.2 13C5.30175 12.9994 5.40194 12.9749 5.4925 12.9285L8.0925 11.6285C8.19969 11.5745 8.28984 11.4918 8.35294 11.3897C8.41604 11.2876 8.44964 11.17 8.45 11.05V8.0665L12.428 4.0885C12.5896 3.92773 12.7197 3.73813 12.8115 3.5295V3.4905C12.9277 3.24638 12.9919 2.98076 13 2.7105V1.95C13 1.43283 12.7946 0.936837 12.4289 0.571142C12.0632 0.205446 11.5672 0 11.05 0ZM7.3385 7.3385C7.27826 7.39923 7.2306 7.47126 7.19825 7.55046C7.1659 7.62965 7.14951 7.71445 7.15 7.8V10.647L5.85 11.297V7.8C5.85049 7.71445 5.8341 7.62965 5.80175 7.55046C5.7694 7.47126 5.72174 7.39923 5.6615 7.3385L2.2165 3.9H10.7835L7.3385 7.3385ZM11.7 2.6H1.3V1.95C1.3 1.77761 1.36848 1.61228 1.49038 1.49038C1.61228 1.36848 1.77761 1.3 1.95 1.3H11.05C11.2224 1.3 11.3877 1.36848 11.5096 1.49038C11.6315 1.61228 11.7 1.77761 11.7 1.95V2.6Z" fill="#8D8D8D"/>
</svg>
