<svg width="201" height="201" viewBox="0 0 201 201" fill="none" xmlns="http://www.w3.org/2000/svg">
<path d="M144.688 175.397L167.467 162.168L158.143 146.144L135.363 159.373L144.688 175.397Z" stroke="#008EF8" stroke-linecap="round" stroke-linejoin="round"/>
<path d="M160.973 181.118C167.48 181.118 172.755 175.848 172.755 169.348C172.755 162.848 167.48 157.578 160.973 157.578C154.466 157.578 149.191 162.848 149.191 169.348C149.191 175.848 154.466 181.118 160.973 181.118Z" fill="#C1E3F7"/>
<path d="M91.4131 40.1524L200.802 0L196.52 16.3522C194.627 23.5829 194.619 31.1771 196.496 38.4117L197.515 42.3587C199.658 50.6307 199.332 59.3481 196.579 67.4376V67.4376C193.584 76.2394 193.469 85.7648 196.251 94.6361L200.802 109.133L91.4131 43.8585V40.1524Z" fill="#FFDF9A" fill-opacity="0.3"/>
<path d="M103.151 197.269C91.5062 199.937 79.4774 200.504 67.6325 198.942C66.4709 198.787 65.3107 198.613 64.1517 198.421C62.9928 198.229 61.822 198.011 60.6394 197.766C59.8703 197.613 59.1011 197.448 58.332 197.269L58.4031 196.223L58.6165 193.199L58.739 191.447L59.0313 187.224L59.3277 182.997L59.5252 180.159L59.6595 178.225L59.9677 173.792L60.2917 169.166L60.6157 164.517L60.9475 159.741L61.2557 155.305L61.5797 150.679L61.8681 146.527L62.2 141.751L62.5121 137.311L62.8321 132.685L63.168 127.897L63.4643 123.638L63.7527 119.462L63.9898 116.064L64.29 111.778L64.5626 107.866L64.8392 103.872L65.1711 99.1356L65.503 94.3598L65.8111 89.9234L66.1312 85.2976L66.2299 83.8885H95.2456L101.962 180.167L102.962 194.502L103.151 197.269Z" fill="#2067EE"/>
<path d="M103.151 197.269C91.5062 199.937 79.4774 200.504 67.6325 198.942C66.4709 198.787 65.3107 198.613 64.1517 198.421C62.9928 198.229 61.822 198.011 60.6394 197.766C59.8703 197.613 59.1011 197.448 58.332 197.269L58.4031 196.223L58.6165 193.199L58.739 191.447L59.0313 187.224L59.3277 182.997L59.5252 180.159C60.2337 180.311 60.9423 180.456 61.6508 180.593C62.7294 180.802 63.812 180.988 64.8945 181.165C65.9771 181.343 67.111 181.505 68.2212 181.639C79.4659 183.053 90.8692 182.553 101.946 180.159L102.946 194.494L103.151 197.269Z" fill="#489EE0"/>
<path d="M67.4981 83.8806C67.3819 84.1973 67.1971 84.4844 66.9568 84.7213C66.7293 84.9703 66.4484 85.1646 66.135 85.2897C66.2567 84.9759 66.4399 84.6895 66.674 84.4475C66.9081 84.2055 67.1883 84.0128 67.4981 83.8806ZM71.4728 84.0701C69.7774 86.1977 67.8815 88.1578 65.8111 89.9234C66.6493 88.8537 67.5462 87.8312 68.4977 86.8606C69.438 85.8773 70.4312 84.9457 71.4728 84.0701V84.0701ZM71.4728 88.1828C69.6758 90.4184 67.6775 92.4848 65.5029 94.3559C66.3925 93.2319 67.3407 92.1555 68.3436 91.1312C69.3352 90.0953 70.3797 89.1112 71.4728 88.1828ZM71.4728 92.6113C70.5324 93.7954 69.4973 94.9163 68.4621 96.0096C67.427 97.1029 66.3326 98.1528 65.171 99.1317C66.1074 97.9476 67.1465 96.8267 68.1777 95.7333C69.2089 94.64 70.3112 93.5901 71.4728 92.6113ZM71.4728 111.478C70.888 112.2 70.2875 112.891 69.6514 113.578C69.0153 114.264 68.395 114.939 67.7549 115.606C67.1149 116.273 66.459 116.932 65.7795 117.58L64.8075 118.531C64.4599 118.843 64.124 119.162 63.7724 119.462C64.0608 119.099 64.369 118.752 64.6653 118.397L65.5938 117.363C66.2101 116.672 66.8502 116.001 67.4902 115.334C68.1303 114.667 68.7822 114.008 69.4657 113.36C70.1492 112.713 70.7695 112.093 71.4728 111.478ZM71.4728 115.354C70.8643 116.1 70.2243 116.818 69.5803 117.528C68.9363 118.239 68.2725 118.937 67.6048 119.632C66.9371 120.327 66.2654 121.006 65.5701 121.673L64.531 122.671C64.1714 122.991 63.8238 123.323 63.4603 123.638C63.7605 123.263 64.0806 122.904 64.3887 122.537L65.3528 121.464C65.9928 120.745 66.6566 120.051 67.3282 119.36C67.9999 118.669 68.6715 117.986 69.363 117.319C70.0544 116.652 70.7339 115.989 71.4728 115.354ZM71.4728 119.305C70.8367 120.094 70.1729 120.82 69.4973 121.558C68.8217 122.296 68.1421 123.019 67.4547 123.737C66.7672 124.455 66.0639 125.162 65.3449 125.853L64.2663 126.891C63.8988 127.226 63.5353 127.569 63.16 127.897C63.4721 127.502 63.804 127.135 64.128 126.756L65.1276 125.643C65.7913 124.901 66.4788 124.183 67.1702 123.465C67.8616 122.746 68.5609 122.04 69.28 121.349C69.9991 120.658 70.7339 119.964 71.4728 119.305ZM71.4728 123.749C70.809 124.538 70.1176 125.328 69.4222 126.089C68.7269 126.851 68.0117 127.605 67.2927 128.355C66.5736 129.105 65.8466 129.835 65.0999 130.557L63.9818 131.635C63.5867 131.986 63.2232 132.345 62.8321 132.685C63.16 132.29 63.5037 131.895 63.8396 131.501L64.8826 130.344C65.578 129.575 66.2931 128.829 67.0082 128.079C67.7233 127.329 68.4582 126.599 69.201 125.876C69.9437 125.154 70.6944 124.436 71.4728 123.749ZM71.4728 128.043C70.7853 128.872 70.0662 129.669 69.3393 130.467C68.6123 131.264 67.8774 132.045 67.1346 132.815C66.3919 133.585 65.6333 134.35 64.8589 135.1L63.7013 136.221C63.3062 136.584 62.9111 136.955 62.516 137.311C62.8558 136.892 63.2153 136.494 63.5669 136.083L64.6455 134.899C65.3686 134.11 66.1113 133.32 66.8541 132.551C67.5969 131.781 68.3555 131.015 69.1259 130.265C69.8963 129.515 70.6668 128.757 71.4728 128.043ZM71.4728 132.16C70.7576 133.016 70.0109 133.841 69.2642 134.662C68.5175 135.483 67.747 136.288 66.9766 137.093C66.2062 137.899 65.4239 138.672 64.606 139.462L63.4208 140.622C63.0257 141.017 62.6306 141.388 62.192 141.755C62.5437 141.325 62.919 140.91 63.2785 140.488L64.4124 139.248C65.1592 138.424 65.9296 137.622 66.6961 136.817C67.4626 136.012 68.2488 135.238 69.0469 134.449C69.845 133.66 70.6391 132.902 71.4728 132.16ZM71.4728 136.592C70.73 137.476 69.9556 138.333 69.1812 139.181C68.4068 140.03 67.6008 140.867 66.8107 141.696C66.0205 142.524 65.2026 143.345 64.3769 144.147L63.1363 145.35C62.7135 145.745 62.2987 146.14 61.868 146.535C62.2355 146.089 62.6227 145.662 62.998 145.224L64.1596 143.945C64.9498 143.093 65.74 142.26 66.5301 141.431C67.3203 140.602 68.1382 139.781 68.9639 138.98C69.7897 138.179 70.6114 137.354 71.4728 136.592ZM71.4728 140.444C70.7063 141.352 69.8924 142.232 69.1022 143.109C68.312 143.985 67.4823 144.841 66.6645 145.698C65.8466 146.554 65.009 147.399 64.1556 148.224L62.8795 149.467C62.4449 149.862 62.0182 150.284 61.5757 150.679C61.9708 150.221 62.3659 149.783 62.7412 149.333L63.9265 148.015C64.7167 147.138 65.5464 146.282 66.3682 145.425C67.1899 144.569 68.0236 143.724 68.873 142.899C69.7225 142.075 70.5877 141.242 71.4728 140.444ZM71.4728 144.735C70.6826 145.67 69.8568 146.578 69.0271 147.498C68.1974 148.417 67.3519 149.29 66.5064 150.174C65.6609 151.058 64.7957 151.926 63.9186 152.783L62.6029 154.065C62.1525 154.484 61.714 154.91 61.2556 155.32C61.6507 154.851 62.0458 154.397 62.4607 153.931L63.7013 152.573C64.527 151.666 65.3725 150.781 66.222 149.897C67.0714 149.013 67.9327 148.145 68.8098 147.288C69.6869 146.432 70.5601 145.56 71.4728 144.735ZM71.4728 148.855C70.6549 149.818 69.8055 150.754 68.9481 151.681C68.0908 152.609 67.2255 153.525 66.3524 154.444C65.4792 155.364 64.5902 156.252 63.6855 157.132L62.3303 158.454C61.868 158.885 61.4176 159.327 60.9475 159.749C61.3426 159.263 61.7772 158.798 62.192 158.32L63.4682 156.923C64.3216 155.991 65.1947 155.08 66.0679 154.16C66.941 153.24 67.83 152.352 68.7308 151.472C69.6316 150.592 70.5364 149.708 71.4728 148.855ZM71.4728 153.284C70.6273 154.275 69.7502 155.238 68.8651 156.197C67.9801 157.156 67.0872 158.099 66.1864 159.039C65.2856 159.978 64.369 160.901 63.4208 161.801L62.0419 163.179C61.5638 163.625 61.0976 164.079 60.6156 164.517C61.0344 164.02 61.4729 163.538 61.9036 163.045L63.2193 161.604C64.1003 160.641 65.0011 159.702 65.9019 158.762C66.8028 157.823 67.7194 156.899 68.6478 155.999C69.5763 155.099 70.5087 154.164 71.4728 153.284ZM71.4728 157.602C70.5996 158.62 69.6948 159.611 68.7861 160.598C67.8774 161.584 66.9529 162.571 66.0205 163.522C65.0881 164.473 64.1477 165.44 63.1916 166.38L61.7535 167.789C61.2636 168.247 60.7855 168.716 60.2877 169.166C60.7223 168.653 61.1727 168.16 61.6152 167.655L62.9743 166.171C63.8791 165.18 64.8075 164.197 65.74 163.246C66.6724 162.295 67.6087 161.328 68.5688 160.388C69.5289 159.449 70.4811 158.51 71.4728 157.602ZM71.4728 178.276C70.4692 179.428 69.4341 180.553 68.395 181.674C67.3559 182.795 66.297 183.889 65.2342 184.998C64.1714 186.107 63.1007 187.184 62.0182 188.258L60.3864 189.868C59.8333 190.393 59.2881 190.93 58.7271 191.447C59.2249 190.867 59.7424 190.306 60.2482 189.734L61.8009 188.049C62.84 186.928 63.9028 185.834 64.9616 184.725C66.0205 183.616 67.0951 182.539 68.1777 181.465C69.2602 180.392 70.3388 179.318 71.4728 178.276ZM58.4031 196.223C58.9167 195.631 59.4461 195.039 59.9834 194.466L61.5638 192.738C62.6306 191.589 63.721 190.464 64.7996 189.327C65.8782 188.191 66.9884 187.086 68.0987 185.98L69.7739 184.327C70.3388 183.786 70.8999 183.237 71.4767 182.704C70.9631 183.3 70.4337 183.889 69.8963 184.461L68.316 186.19C67.2532 187.338 66.1627 188.463 65.0841 189.6C64.0055 190.736 62.8953 191.846 61.7851 192.951C60.6749 194.056 59.5488 195.153 58.4031 196.223ZM60.6393 197.766C60.8882 197.47 61.145 197.178 61.4018 196.89C61.6586 196.602 61.9076 196.306 62.192 196.021L63.7724 194.308C63.7871 194.293 63.8048 194.28 63.8245 194.271C63.8442 194.262 63.8654 194.258 63.887 194.257V194.257L63.7645 194.308C65.0051 192.974 66.2773 191.664 67.5574 190.362C68.1974 189.71 68.8533 189.075 69.5052 188.435C70.1571 187.796 70.8209 187.172 71.4807 186.553C70.8841 187.243 70.2954 187.93 69.6632 188.601C69.0311 189.272 68.4345 189.951 67.8063 190.61C66.5538 191.936 65.2895 193.251 63.9976 194.537C63.9651 194.567 63.923 194.584 63.8791 194.585V194.585L64.0015 194.533L62.3422 196.16C62.0695 196.432 61.7851 196.692 61.5046 196.949C61.224 197.206 60.9238 197.506 60.6393 197.766ZM64.1517 198.421C64.7009 197.734 65.2856 197.075 65.8743 196.424C66.463 195.773 67.0596 195.133 67.668 194.498C68.2765 193.862 68.8968 193.243 69.5329 192.639L70.489 191.731C70.8169 191.439 71.133 191.135 71.4728 190.851C71.2001 191.198 70.9078 191.526 70.6273 191.865L69.7501 192.848C69.1654 193.503 68.5649 194.139 67.9525 194.774C67.3401 195.41 66.7277 196.029 66.0916 196.633C65.4555 197.237 64.8075 197.849 64.1517 198.421ZM67.6324 198.926C68.1662 198.171 68.7608 197.461 69.4104 196.803C70.0454 196.13 70.7352 195.511 71.4728 194.952C70.3881 196.452 69.095 197.791 67.6324 198.926ZM71.4728 161.892C70.5719 162.942 69.6395 163.96 68.7071 164.971C67.7747 165.981 66.8186 166.984 65.8664 167.978C64.9142 168.973 63.9423 169.952 62.9545 170.923L61.4769 172.371C60.9751 172.845 60.4813 173.326 59.9716 173.792C60.4181 173.263 60.8843 172.754 61.3386 172.237L62.7372 170.714C63.6697 169.695 64.6258 168.701 65.5819 167.706C66.538 166.711 67.506 165.733 68.4898 164.762C69.4736 163.791 70.4534 162.828 71.4728 161.892ZM71.4728 166.009C70.5443 167.082 69.5882 168.128 68.6281 169.166C67.668 170.204 66.6882 171.231 65.7083 172.253C64.7285 173.275 63.7329 174.282 62.7214 175.276L61.2043 176.764C60.6907 177.25 60.181 177.747 59.6595 178.225C60.1178 177.684 60.5958 177.163 61.066 176.646L62.5041 175.067C63.4603 174.021 64.4401 172.999 65.4239 171.981C66.4077 170.962 67.3993 169.952 68.4108 168.957C69.4222 167.963 70.4297 166.956 71.4728 166.009ZM59.3276 182.997C60.2798 181.891 61.2635 180.818 62.2552 179.752C63.2469 178.686 64.2307 177.629 65.2579 176.595C66.2852 175.56 67.2887 174.511 68.3278 173.488L69.8845 171.957C70.4139 171.456 70.9354 170.946 71.4649 170.453C70.9907 171.006 70.4969 171.542 70.0149 172.091L68.5451 173.666C67.5574 174.739 66.5499 175.789 65.5424 176.823C64.5349 177.858 63.5077 178.907 62.4725 179.93C61.4374 180.952 60.3983 182.006 59.3276 182.997ZM59.0313 187.224C60.0072 186.095 61.0067 184.998 62.03 183.904C63.0533 182.811 64.0845 181.741 65.1078 180.66C66.1311 179.578 67.1939 178.529 68.2685 177.479L69.8489 175.9C70.3941 175.387 70.9236 174.866 71.4767 174.361C70.9907 174.929 70.485 175.478 69.9912 176.034L68.474 177.68C67.4586 178.769 66.4195 179.839 65.3962 180.92C64.3729 182.002 63.3141 183.056 62.2355 184.102C61.1569 185.148 60.1257 186.209 59.0313 187.224ZM71.4728 108.628C70.9038 109.307 70.2875 109.95 69.7067 110.602C69.1259 111.253 68.4898 111.872 67.8695 112.492C67.2492 113.112 66.6171 113.728 65.9652 114.32L64.9932 115.212C64.6574 115.496 64.3334 115.796 63.9897 116.072C64.2702 115.729 64.5665 115.409 64.8549 115.073L65.7518 114.106C66.3523 113.459 66.9687 112.835 67.5929 112.216C68.2172 111.596 68.8454 110.98 69.4933 110.388C70.1413 109.796 70.7892 109.189 71.4728 108.628ZM71.4728 104.547C70.9315 105.206 70.3586 105.838 69.7818 106.461C69.2049 107.085 68.5965 107.697 68.0196 108.3C67.4428 108.904 66.8344 109.485 66.1943 110.077L65.254 110.941C64.934 111.221 64.6218 111.509 64.29 111.778C64.5547 111.446 64.8431 111.13 65.1197 110.807L65.977 109.863C66.5499 109.236 67.1623 108.628 67.7391 108.024C68.316 107.42 68.9442 106.84 69.5684 106.248C70.1927 105.656 70.8169 105.092 71.4728 104.547ZM71.4728 100.924C70.4297 102.191 69.3037 103.371 68.1579 104.535C67.0122 105.699 65.8229 106.82 64.5626 107.866C65.6017 106.599 66.7277 105.415 67.8774 104.255C69.0271 103.094 70.2085 101.97 71.4728 100.924ZM71.4728 97.1779C70.4771 98.4015 69.3946 99.5461 68.312 100.663C67.2295 101.78 66.0718 102.865 64.8549 103.872C65.8466 102.648 66.9292 101.504 68.0157 100.387C69.1022 99.2698 70.2559 98.1844 71.4728 97.1779Z" fill="#2428BB"/>
<path d="M95.2494 64.1775H66.218V83.8806H95.2494V64.1775Z" fill="#C1E3F7"/>
<path d="M91.579 48.216H69.8884V64.1775H91.579V48.216Z" fill="#2067EE"/>
<path d="M87.703 32.0887H73.7642V48.216H87.703V32.0887Z" fill="#C1E3F7"/>
<path d="M89.9947 35.2502H71.4688C71.4701 32.1877 72.2883 29.1809 73.8393 26.5393L80.7376 14.7853L87.632 26.5393C89.183 29.1809 90.0012 32.1877 90.0026 35.2502H89.9947Z" fill="#2067EE"/>
<path d="M95.5852 88.7235C94.8214 87.6145 93.7114 86.7894 92.4286 86.3769C91.1459 85.9645 89.7625 85.988 88.4945 86.4437C87.2265 86.8995 86.1453 87.7618 85.4196 88.8961C84.6939 90.0305 84.3646 91.3729 84.4831 92.7139L85.8422 107.874L96.8535 106.887L95.5852 88.7235ZM97.8333 120.986C97.2027 120.356 96.4413 119.872 95.6029 119.569C94.7646 119.265 93.8697 119.149 92.9816 119.23V119.23C92.1835 119.301 91.4074 119.529 90.6976 119.9C89.9877 120.271 89.3579 120.778 88.8443 121.392C88.3306 122.007 87.9432 122.716 87.704 123.48C87.4648 124.244 87.3786 125.047 87.4503 125.845L88.8094 141.001L99.1806 140.077L97.8333 120.986ZM100.2 154.918C99.3893 154.639 98.5291 154.534 97.6753 154.61V154.61C96.8773 154.681 96.1011 154.909 95.3913 155.28C94.6814 155.651 94.0516 156.159 93.538 156.773C93.0243 157.387 92.6369 158.097 92.3977 158.861C92.1585 159.624 92.0723 160.428 92.144 161.225L93.5031 176.381L101.642 175.655L100.2 154.918Z" fill="#C1E3F7"/>
<path d="M91.413 40.1523H87.7031V43.8585H91.413V40.1523Z" fill="#0234C1"/>
<path d="M14.208 59.1569C18.3646 56.5488 22.2563 53.5414 25.8277 50.1776C26.7206 49.3409 27.5819 48.4686 28.4392 47.5963C28.8343 47.1464 29.2926 46.7122 29.6877 46.2543C30.0828 45.7965 30.4779 45.3189 30.8453 44.8374C32.3348 42.8994 33.7453 40.8904 35.1598 38.8854L39.4031 32.8702C40.1142 31.8716 40.8214 30.8652 41.5603 29.8824C42.2842 28.8834 43.1046 27.958 44.0098 27.1195C45.8946 25.4822 48.2137 24.4253 50.6869 24.0764C53.1325 23.735 55.6212 23.869 58.0159 24.4711C55.6196 23.9361 53.1437 23.8584 50.7185 24.2422C48.2989 24.6166 46.0392 25.6816 44.2113 27.309C43.3413 28.1584 42.548 29.083 41.8408 30.0718C41.1138 31.0546 40.4145 32.0453 39.7073 33.0676L35.4798 39.1104C34.0574 41.1115 32.6391 43.1126 31.1338 45.0584C30.7387 45.5399 30.3712 46.0215 29.9485 46.4872C29.5257 46.953 29.103 47.3832 28.6802 47.8331C27.8189 48.7093 26.9418 49.5737 26.0292 50.3986C24.2215 52.0636 22.3278 53.6327 20.3556 55.0995C18.3804 56.5606 16.3282 57.915 14.208 59.1569V59.1569ZM41.8013 43.8112C42.1944 42.1492 42.786 40.5405 43.5634 39.0196C44.353 37.4944 45.3634 36.094 46.5621 34.8634C47.7657 33.6279 49.1696 32.6043 50.7146 31.8361C52.2569 31.1066 53.8399 30.4662 55.4557 29.9179C57.0593 29.3606 58.6303 28.7135 60.1612 27.9799C61.6858 27.2355 63.1647 26.4012 64.5902 25.4815C66.0222 24.5681 67.3995 23.5718 68.715 22.4976C70.0425 21.432 71.2989 20.2834 72.5237 19.0993C70.2015 21.6005 67.5992 23.8267 64.768 25.7341C61.9178 27.6311 58.8394 29.1615 55.6058 30.2889C53.9915 30.8214 52.4086 31.4447 50.8647 32.1558C49.3502 32.9041 47.9656 33.8902 46.7636 35.0766C44.3496 37.4408 42.7455 40.551 41.8013 43.8112ZM12.7856 118.835C16.6117 117.611 20.2922 115.973 23.7613 113.949C25.4918 112.938 27.1552 111.821 28.783 110.645C30.4107 109.469 32.0306 108.277 33.5478 106.99C34.3068 106.342 35.0272 105.65 35.705 104.918C36.3857 104.201 36.9786 103.406 37.471 102.55C37.9576 101.708 38.2289 100.759 38.2612 99.7869C38.241 98.8077 37.9542 97.8526 37.4315 97.024C36.4122 95.3702 34.7212 94.0401 32.7892 93.7599C31.8252 93.6316 30.845 93.8053 29.984 94.2572C29.1196 94.7124 28.3813 95.3741 27.8347 96.1833C27.2915 96.9801 26.9623 97.9029 26.8786 98.8633C26.845 99.3464 26.8729 99.8318 26.9616 100.308C27.0612 100.785 27.2108 101.251 27.408 101.697C27.8059 102.593 28.3852 103.397 29.1093 104.059C29.8335 104.721 30.6869 105.225 31.6158 105.542C33.4964 106.141 35.5667 105.936 37.4671 105.455C39.3972 104.939 41.2662 104.218 43.0419 103.304C44.8241 102.407 46.5416 101.388 48.182 100.253C49.8248 99.1079 51.3518 97.8059 52.7414 96.3649C55.5291 93.4659 57.7947 90.1076 59.4382 86.4383C57.8466 90.1397 55.6279 93.5392 52.8797 96.4872C51.4938 97.9483 49.9681 99.2702 48.3243 100.434C46.6773 101.595 44.9518 102.641 43.1604 103.564C41.377 104.508 39.4939 105.251 37.5461 105.778C36.5621 106.033 35.5547 106.188 34.5395 106.24C33.5133 106.297 32.485 106.174 31.5012 105.877C30.523 105.546 29.6238 105.017 28.8597 104.323C28.0955 103.629 27.483 102.785 27.0604 101.843C26.8492 101.371 26.6889 100.877 26.5823 100.371C26.4848 99.8641 26.4516 99.3469 26.4835 98.8317C26.5772 97.7933 26.9408 96.7973 27.5384 95.9425C28.1229 95.0812 28.9115 94.3775 29.8339 93.8941C30.7664 93.409 31.8268 93.2255 32.8682 93.3691C33.8933 93.5288 34.8642 93.9352 35.6971 94.5532C36.5272 95.1662 37.2302 95.9342 37.7674 96.8148C38.3195 97.6979 38.6213 98.7142 38.6405 99.7553C38.6019 100.791 38.3074 101.801 37.7832 102.696C36.7717 104.484 35.2822 105.901 33.7572 107.211C32.2321 108.521 30.5964 109.686 28.937 110.838C27.3043 112.013 25.6124 113.104 23.868 114.106C20.3587 116.084 16.6422 117.67 12.7856 118.835V118.835Z" fill="#A0C2EA"/>
<path d="M108.931 9.83582C109.149 10.8699 109.291 11.908 109.406 12.946C109.52 13.9841 109.599 15.03 109.662 16.072C109.726 17.114 109.749 18.1599 109.745 19.2059C109.751 20.2601 109.704 21.314 109.603 22.3634C109.386 21.3254 109.244 20.2873 109.129 19.2493C109.014 18.2113 108.935 17.1653 108.872 16.1233C108.809 15.0813 108.785 14.0354 108.793 12.9894C108.786 11.9366 108.832 10.884 108.931 9.83582V9.83582Z" fill="#F46534"/>
<path d="M115.533 15.7562C114.503 15.968 113.463 16.1274 112.416 16.2338C111.377 16.3522 110.334 16.4233 109.287 16.4864C108.24 16.5496 107.197 16.5772 106.15 16.5693C105.095 16.5767 104.04 16.5306 102.989 16.4312C104.02 16.2194 105.06 16.06 106.107 15.9536C107.146 15.8352 108.189 15.7641 109.236 15.701C110.283 15.6378 111.326 15.6141 112.373 15.6181C113.42 15.622 114.479 15.6497 115.533 15.7562ZM117.201 17.5087C117.392 18.1933 117.532 18.8912 117.62 19.5966C117.714 20.2992 117.785 20.9978 117.821 21.7003C117.857 22.4029 117.868 23.1055 117.849 23.812C117.837 24.5236 117.772 25.2334 117.655 25.9354C117.462 25.2509 117.321 24.553 117.232 23.8475C117.138 23.1449 117.07 22.4463 117.031 21.7438C116.991 21.0412 116.987 20.3387 117.007 19.6321C117.019 18.9205 117.084 18.2107 117.201 17.5087Z" fill="#F46534"/>
<path d="M121.645 21.4951C120.959 21.6864 120.259 21.8262 119.552 21.9135C118.852 22.0122 118.153 22.0793 117.45 22.1148C116.746 22.1503 116.039 22.1621 115.336 22.1424C114.622 22.1305 113.91 22.0659 113.206 21.949C113.893 21.7587 114.593 21.6176 115.3 21.5267C116 21.432 116.703 21.3649 117.406 21.3293C118.109 21.2938 118.813 21.282 119.52 21.3017C120.232 21.3134 120.943 21.3781 121.645 21.4951V21.4951ZM13.9432 122.052C14.1551 123.081 14.3147 124.12 14.4212 125.166C14.5398 126.204 14.6109 127.25 14.678 128.292C14.7452 129.334 14.765 130.38 14.7571 131.426C14.7665 132.48 14.7204 133.534 14.6188 134.583C14.4062 133.554 14.2479 132.515 14.1447 131.469C14.0261 130.431 13.9511 129.389 13.8879 128.347C13.8246 127.305 13.8009 126.259 13.8088 125.209C13.8001 124.155 13.8449 123.101 13.9432 122.052V122.052Z" fill="#F46534"/>
<path d="M20.5571 127.976C19.522 128.193 18.4829 128.335 17.4399 128.45C16.3968 128.564 15.3538 128.643 14.3107 128.706C13.2677 128.769 12.2207 128.793 11.1737 128.789C10.1267 128.785 9.07574 128.757 8.01294 128.651C9.04328 128.439 10.0837 128.28 11.1302 128.173C12.1693 128.055 13.2124 127.98 14.2554 127.917C15.2985 127.854 16.3454 127.83 17.3964 127.838C18.4516 127.831 19.5066 127.877 20.5571 127.976V127.976ZM22.2165 129.725C22.4057 130.411 22.5456 131.11 22.6353 131.816C22.7302 132.515 22.7973 133.218 22.8368 133.92C22.8763 134.623 22.8842 135.325 22.8645 136.032C22.8528 136.743 22.7881 137.453 22.6709 138.155C22.4766 137.47 22.3353 136.77 22.2481 136.063C22.1533 135.365 22.0822 134.662 22.0466 133.96C22.0111 133.257 22.0032 132.554 22.0229 131.848C22.0348 131.136 22.0995 130.427 22.2165 129.725Z" fill="#F46534"/>
<path d="M26.6614 133.715C25.9742 133.904 25.2744 134.044 24.5674 134.133C23.868 134.228 23.1648 134.295 22.4615 134.335C21.7582 134.374 21.055 134.382 20.3478 134.362C19.6354 134.35 18.9249 134.286 18.2222 134.169C18.9083 133.975 19.6084 133.834 20.3162 133.746C21.0155 133.652 21.7187 133.581 22.422 133.545C23.1253 133.51 23.8285 133.502 24.5358 133.521C25.2481 133.533 25.9586 133.598 26.6614 133.715V133.715ZM185.366 114.387C185.584 115.421 185.726 116.463 185.84 117.501C185.955 118.539 186.034 119.585 186.097 120.627C186.16 121.669 186.184 122.715 186.18 123.761C186.186 124.815 186.139 125.869 186.038 126.918C185.821 125.884 185.678 124.846 185.564 123.804C185.449 122.762 185.37 121.724 185.307 120.682C185.244 119.64 185.22 118.594 185.228 117.524C185.221 116.477 185.267 115.43 185.366 114.387V114.387Z" fill="#F46534"/>
<path d="M191.968 120.311C190.933 120.528 189.894 120.67 188.851 120.785C187.808 120.899 186.769 120.978 185.722 121.041C184.675 121.104 183.632 121.132 182.585 121.124C181.53 121.131 180.475 121.085 179.424 120.986C180.454 120.774 181.495 120.615 182.541 120.508C183.58 120.39 184.623 120.315 185.67 120.252C186.717 120.189 187.761 120.165 188.808 120.173C189.863 120.166 190.918 120.212 191.968 120.311V120.311ZM193.636 122.06C193.827 122.746 193.967 123.445 194.054 124.151C194.149 124.85 194.22 125.553 194.256 126.255C194.291 126.958 194.303 127.66 194.284 128.367C194.272 129.078 194.207 129.788 194.09 130.49C193.898 129.804 193.756 129.105 193.667 128.398C193.572 127.7 193.505 127.001 193.466 126.299C193.426 125.596 193.422 124.889 193.442 124.183C193.454 123.471 193.519 122.762 193.636 122.06V122.06Z" fill="#F46534"/>
<path d="M198.08 126.05C197.394 126.241 196.694 126.381 195.986 126.468C195.287 126.563 194.588 126.634 193.884 126.67C193.181 126.705 192.474 126.717 191.771 126.697C191.057 126.685 190.345 126.621 189.641 126.504C190.328 126.312 191.028 126.17 191.735 126.081C192.434 125.987 193.138 125.916 193.841 125.88C194.544 125.845 195.247 125.837 195.955 125.856C196.667 125.868 197.378 125.933 198.08 126.05V126.05Z" fill="#F46534"/>
<path d="M130.899 173.796L138.69 187.176C138.206 186.96 137.736 186.712 137.283 186.434L130.847 175.383C130.827 174.853 130.844 174.323 130.899 173.796V173.796ZM131.183 178.094L135.095 184.804C133.146 183.011 131.783 180.673 131.183 178.094V178.094ZM131.404 171.242L141.159 188.009C140.764 187.914 140.369 187.804 139.974 187.674L131.084 172.403C131.164 172.009 131.271 171.622 131.404 171.242V171.242ZM132.238 169.143L143.395 188.317C143.05 188.309 142.705 188.277 142.364 188.222L131.807 170.066C131.931 169.75 132.075 169.441 132.238 169.143ZM133.277 167.398L145.426 188.27C145.113 188.304 144.797 188.323 144.482 188.325L132.764 168.195C132.764 168.16 132.807 168.124 132.831 168.081C132.969 167.84 133.123 167.615 133.277 167.398ZM134.455 165.965L147.256 187.962C146.963 188.033 146.679 188.096 146.382 188.139L133.866 166.629C134.049 166.397 134.246 166.175 134.455 165.965V165.965ZM135.743 164.762L148.935 187.437C148.666 187.543 148.401 187.638 148.144 187.721L135.106 165.33C135.306 165.127 135.519 164.937 135.743 164.762V164.762ZM137.196 163.728L150.543 186.691C150.3 186.838 150.048 186.97 149.788 187.086L136.489 164.193C136.714 164.027 136.955 163.87 137.196 163.728ZM138.785 162.907L152.06 185.72C151.839 185.886 151.609 186.048 151.364 186.198L138.022 163.27C138.268 163.133 138.523 163.011 138.785 162.907V162.907ZM140.511 162.283L153.455 184.528C153.253 184.733 153.036 184.923 152.818 185.112L139.682 162.539C139.954 162.449 140.231 162.358 140.511 162.283ZM142.345 161.9L154.691 183.139C154.516 183.383 154.326 183.616 154.122 183.837L141.456 162.054C141.749 161.986 142.046 161.935 142.345 161.9V161.9ZM144.34 161.782L155.797 181.441C155.687 181.655 155.572 181.856 155.454 182.053C155.406 182.128 155.355 182.207 155.308 182.274L143.392 161.797C143.696 161.778 144.012 161.77 144.34 161.782ZM146.469 161.987L156.663 179.5C156.552 179.838 156.42 180.168 156.268 180.49L145.406 161.825C145.764 161.854 146.119 161.908 146.469 161.987V161.987ZM148.836 162.638L157.259 177.123C157.2 177.539 157.113 177.951 156.999 178.355L147.623 162.239C148.035 162.349 148.44 162.482 148.836 162.638V162.638ZM151.795 164.193L157.358 173.753C157.425 174.342 157.445 174.936 157.417 175.529L150.282 163.27C150.562 163.42 150.855 163.581 151.127 163.755C151.4 163.929 151.582 164.055 151.795 164.193ZM156.73 170.84L154.012 166.167C155.23 167.521 156.156 169.112 156.73 170.84V170.84Z" fill="#FFEDC5"/>
<path d="M65.3724 170.572H95.4232C103.184 170.572 110.626 173.651 116.114 179.133C121.601 184.615 124.684 192.05 124.684 199.803V199.803H36.1118C36.1118 192.05 39.1946 184.615 44.682 179.133C50.1695 173.651 57.612 170.572 65.3724 170.572V170.572Z" fill="#A3A3A3"/>
<path d="M47.8185 191.088C47.8294 191.308 47.7954 191.528 47.7186 191.734C47.6418 191.941 47.5238 192.129 47.3717 192.289C47.2197 192.449 47.0368 192.576 46.8341 192.662C46.6315 192.749 46.4132 192.794 46.1927 192.794C45.9722 192.794 45.754 192.749 45.5513 192.662C45.3487 192.576 45.1657 192.449 45.0137 192.289C44.8617 192.129 44.7437 191.941 44.6669 191.734C44.5901 191.528 44.5561 191.308 44.5669 191.088C44.5669 190.192 45.689 190.251 46.5898 190.251C47.4906 190.251 47.8185 190.192 47.8185 191.088ZM63.4405 181.698C63.4405 183.399 61.6665 183.987 59.9676 183.987C59.1503 183.987 58.3665 183.663 57.7885 183.086C57.2106 182.508 56.8859 181.725 56.8859 180.909C56.8859 180.092 57.2106 179.309 57.7885 178.732C58.3665 178.154 59.1503 177.83 59.9676 177.83C61.6665 177.83 63.4405 180.001 63.4405 181.698ZM90.3621 182.065C90.3621 182.882 90.0375 183.665 89.4595 184.242C88.8816 184.819 88.0977 185.144 87.2804 185.144C85.5815 185.144 84.5938 184.556 84.5938 182.854C84.5938 181.153 85.5815 178.986 87.2804 178.986C88.0977 178.986 88.8816 179.311 89.4595 179.888C90.0375 180.465 90.3621 181.249 90.3621 182.065V182.065ZM119.018 192.951C119.018 194.652 117.244 195.24 115.541 195.24C115.137 195.24 114.736 195.16 114.362 195.006C113.988 194.851 113.648 194.624 113.362 194.338C113.076 194.052 112.849 193.713 112.694 193.339C112.539 192.966 112.46 192.566 112.46 192.161C112.46 190.464 114.238 189.876 115.937 189.876C116.753 189.876 117.536 190.2 118.114 190.776C118.692 191.353 119.017 192.135 119.018 192.951V192.951ZM74.5703 193.847C74.5703 194.251 74.4906 194.651 74.3357 195.025C74.1808 195.398 73.9538 195.738 73.6677 196.024C73.3815 196.309 73.0418 196.536 72.6679 196.691C72.294 196.846 71.8932 196.925 71.4886 196.925C69.7857 196.925 68.0117 194.758 68.0117 193.057C68.0117 192.241 68.3364 191.458 68.9143 190.88C69.4923 190.303 70.2761 189.979 71.0935 189.979C72.7924 189.979 74.5703 192.15 74.5703 193.847ZM99.0463 193.566C99.0463 194.415 98.3588 194.253 97.5054 194.253C96.652 194.253 96.3636 194.356 96.3636 193.503C96.3636 193.096 96.5254 192.705 96.8135 192.416C97.1016 192.128 97.4925 191.965 97.9005 191.964C98.7539 191.964 99.0463 192.714 99.0463 193.566ZM106.838 177.451C106.838 178.3 106.541 179.776 105.692 179.776C105.284 179.776 104.892 179.614 104.604 179.326C104.315 179.039 104.152 178.648 104.151 178.24C104.151 177.388 104.447 175.912 105.297 175.912C105.705 175.912 106.097 176.074 106.386 176.363C106.675 176.651 106.838 177.043 106.838 177.451V177.451ZM79.0072 174.736C79.0072 175.746 77.7903 175.774 76.7788 175.774C76.3079 175.752 75.8635 175.549 75.5379 175.209C75.2123 174.868 75.0307 174.415 75.0307 173.944C75.0307 173.473 75.2123 173.02 75.5379 172.68C75.8635 172.339 76.3079 172.137 76.7788 172.115C77.7903 172.115 79.0072 173.725 79.0072 174.736Z" fill="#7F7F7F"/>
<path d="M26.4795 199.751C30.7738 199.751 34.255 193.725 34.255 186.292C34.255 178.859 30.7738 172.833 26.4795 172.833C22.1853 172.833 18.7041 178.859 18.7041 186.292C18.7041 193.725 22.1853 199.751 26.4795 199.751Z" stroke="#FFCD52" stroke-miterlimit="10"/>
<path d="M33.1487 192.217C34.2549 189.667 33.4213 188.104 33.4213 186.296C33.4213 182.495 32.1491 178.189 29.8654 175.489C29.2539 177.424 28.9278 179.437 28.8975 181.465C28.9093 185.258 30.8808 189.509 33.1487 192.217Z" fill="#FFCD52"/>
<path d="M38.4429 194.944C42.7372 194.944 46.2183 188.918 46.2183 181.485C46.2183 174.052 42.7372 168.026 38.4429 168.026C34.1487 168.026 30.6675 174.052 30.6675 181.485C30.6675 188.918 34.1487 194.944 38.4429 194.944Z" fill="white"/>
<path d="M19.3718 186.715C19.3718 188.214 18.7633 189.414 19.597 191.451C23.1528 188.605 25.8513 183.829 25.8513 178.907C25.8032 177.174 25.5512 175.451 25.1006 173.776C21.5053 176.591 19.3718 181.793 19.3718 186.715Z" fill="#FFCD52"/>
<path d="M16.6653 191.589C20.9596 191.589 24.4408 185.563 24.4408 178.13C24.4408 170.697 20.9596 164.671 16.6653 164.671C12.3711 164.671 8.88989 170.697 8.88989 178.13C8.88989 185.563 12.3711 191.589 16.6653 191.589Z" fill="white"/>
<path d="M26.4795 199.751V179.567" stroke="#FFCD52" stroke-linecap="round" stroke-linejoin="round"/>
<path d="M26.4795 187.472L23.3306 183.877" stroke="#FFCD52" stroke-linecap="round" stroke-linejoin="round"/>
<path d="M26.4796 191.767L21.9399 186.584" stroke="#FFCD52" stroke-linecap="round" stroke-linejoin="round"/>
<path d="M26.4795 196.191L21.7937 190.839" stroke="#FFCD52" stroke-linecap="round" stroke-linejoin="round"/>
<path d="M26.4795 187.48L30.2961 183.119" stroke="#FFCD52" stroke-linecap="round" stroke-linejoin="round"/>
<path d="M26.4795 191.775L31.1653 186.422" stroke="#FFCD52" stroke-linecap="round" stroke-linejoin="round"/>
<path d="M26.4795 196.199L31.1653 190.847" stroke="#FFCD52" stroke-linecap="round" stroke-linejoin="round"/>
<path d="M16.6653 191.589C20.9596 191.589 24.4408 185.563 24.4408 178.13C24.4408 170.697 20.9596 164.671 16.6653 164.671C12.3711 164.671 8.88989 170.697 8.88989 178.13C8.88989 185.563 12.3711 191.589 16.6653 191.589Z" stroke="#008EF8" stroke-miterlimit="10"/>
<path d="M16.6655 171.404V191.589V199.803" stroke="#008EF8" stroke-linecap="round" stroke-linejoin="round"/>
<path d="M16.6654 179.31L12.8567 174.957" stroke="#008EF8" stroke-linecap="round" stroke-linejoin="round"/>
<path d="M16.6655 183.604L11.9797 178.252" stroke="#008EF8" stroke-linecap="round" stroke-linejoin="round"/>
<path d="M16.6655 188.029L11.9797 182.677" stroke="#008EF8" stroke-linecap="round" stroke-linejoin="round"/>
<path d="M16.6655 179.318L20.4861 174.957" stroke="#008EF8" stroke-linecap="round" stroke-linejoin="round"/>
<path d="M16.6655 183.612L21.3513 178.26" stroke="#008EF8" stroke-linecap="round" stroke-linejoin="round"/>
<path d="M16.6655 188.037L21.3513 182.685" stroke="#008EF8" stroke-linecap="round" stroke-linejoin="round"/>
<path d="M38.4429 194.944C42.7372 194.944 46.2183 188.918 46.2183 181.485C46.2183 174.052 42.7372 168.026 38.4429 168.026C34.1487 168.026 30.6675 174.052 30.6675 181.485C30.6675 188.918 34.1487 194.944 38.4429 194.944Z" stroke="#FF5061" stroke-linecap="round" stroke-linejoin="round"/>
<path d="M38.4429 174.759V194.944V199.803" stroke="#FF5061" stroke-linecap="round" stroke-linejoin="round"/>
<path d="M38.443 182.665L34.6304 178.311" stroke="#FF5061" stroke-linecap="round" stroke-linejoin="round"/>
<path d="M38.4429 186.959L33.7571 181.607" stroke="#FF5061" stroke-linecap="round" stroke-linejoin="round"/>
<path d="M38.4429 191.384L33.7571 186.032" stroke="#FF5061" stroke-linecap="round" stroke-linejoin="round"/>
<path d="M38.4429 182.677L42.2634 178.311" stroke="#FF5061" stroke-linecap="round" stroke-linejoin="round"/>
<path d="M38.4429 186.967L43.1287 181.615" stroke="#FF5061" stroke-linecap="round" stroke-linejoin="round"/>
<path d="M38.4429 191.396L43.1287 186.044" stroke="#FF5061" stroke-linecap="round" stroke-linejoin="round"/>
<path d="M1 199.803H155.015" stroke="#545454" stroke-linecap="round" stroke-linejoin="round"/>
</svg>
