<svg width="13" height="13" viewBox="0 0 13 13" fill="none" xmlns="http://www.w3.org/2000/svg">
<path d="M1.53285 8.93136C2.43345 9.83296 3.63275 10.3742 4.90483 10.4531C6.17691 10.532 7.43395 10.1432 8.43914 9.35983L11.8978 12.8175C12.0205 12.9359 12.1848 13.0015 12.3553 13C12.5258 12.9985 12.6889 12.9301 12.8095 12.8096C12.9301 12.689 12.9985 12.5259 13 12.3555C13.0015 12.185 12.9359 12.0208 12.8174 11.8981L9.35876 8.44048C10.1771 7.39054 10.564 6.06806 10.4406 4.74275C10.3171 3.41744 9.69261 2.18912 8.6944 1.3083C7.69619 0.427482 6.39947 -0.0394902 5.0687 0.00261912C3.73793 0.0447285 2.47335 0.592748 1.53285 1.53491C1.0469 2.02048 0.661399 2.59701 0.398386 3.23157C0.135373 3.86612 0 4.54626 0 5.23314C0 5.92001 0.135373 6.60015 0.398386 7.23471C0.661399 7.86926 1.0469 8.44579 1.53285 8.93136V8.93136ZM2.45248 2.45557C3.09542 1.81283 3.94139 1.41284 4.84625 1.32373C5.75111 1.23463 6.65889 1.46193 7.41491 1.96691C8.17093 2.47189 8.72843 3.2233 8.99241 4.09312C9.25639 4.96294 9.21053 5.89736 8.86264 6.73717C8.51474 7.57698 7.88634 8.27022 7.0845 8.69878C6.28266 9.12734 5.35699 9.26471 4.46519 9.08747C3.5734 8.91024 2.77067 8.42937 2.19376 7.7268C1.61685 7.02422 1.30146 6.14341 1.30132 5.23444C1.29954 4.71792 1.40038 4.20619 1.59799 3.72893C1.7956 3.25168 2.08605 2.81841 2.45248 2.45427V2.45557Z" fill="#8D8D8D"/>
</svg>
